<svg width="70" height="27" viewBox="0 0 70 27" fill="none" xmlns="http://www.w3.org/2000/svg">
<g clip-path="url(#clip0_1_11)">
<path d="M20.6885 12.8847C18.3607 11.2906 15.3811 11.939 13.8156 14.3383C12.5082 16.3412 10.5369 16.589 9.77049 16.589C7.28279 16.589 5.57787 14.8256 5.07377 13.0003C5.07377 13.0003 5.06557 12.9673 5.06148 12.9508C5.05738 12.9301 5.04918 12.9095 5.04508 12.8888C4.84836 12.1289 4.79918 11.7614 4.79918 10.952C4.79918 6.58688 9.2459 1.72209 15.6475 1.72209C22.0492 1.72209 25.959 6.75207 26.9221 9.54788C26.9057 9.49832 26.8893 9.44876 26.8729 9.39921C25.0123 3.93148 19.8689 0 13.8074 0C6.18443 0 0 6.22759 0 13.913C0 20.7807 4.91803 26.6614 11.7377 26.6614C17.1762 26.6614 20.832 23.5889 22.5082 19.3518C23.4303 17.035 22.7787 14.3136 20.6885 12.8847Z" fill="#003863"/>
<path d="M27.0082 9.82043C26.2008 7.09482 22.4221 1.72208 15.6475 1.72208C9.2418 1.72208 4.79918 6.58274 4.79918 10.952C4.79918 11.7614 4.84836 12.1248 5.04508 12.8888C4.96311 12.5543 4.91803 12.2198 4.91803 11.8977C4.91803 7.35086 9.43852 4.1999 14.082 4.1999C20.3689 4.1999 25.4672 9.33725 25.4672 15.6722C25.4672 20.6402 22.6311 24.9393 18.5082 27.0041C23.8197 25.0673 27.6148 19.9423 27.6148 13.9212C27.6148 12.4965 27.4262 11.241 27.0082 9.82456V9.82043Z" fill="#E4032E"/>
<path d="M42.1393 17.1796V18.3896H34.75V17.1796H37.6967V14.8091C37.5082 14.7678 37.3279 14.71 37.1516 14.6357C36.7582 14.4705 36.418 14.2516 36.1393 13.9873C35.8484 13.7065 35.623 13.3802 35.4508 13.0127C35.2787 12.6451 35.1967 12.2528 35.1967 11.8275C35.1967 11.4021 35.2828 11.0222 35.4508 10.6546C35.6189 10.2912 35.8484 9.96497 36.1393 9.68415C36.418 9.41985 36.7541 9.2051 37.1393 9.03991C37.5287 8.87885 37.9344 8.79626 38.3648 8.79626C38.7951 8.79626 39.1967 8.87885 39.5779 9.03991C39.9549 9.20097 40.291 9.41572 40.5779 9.68415C40.8689 9.96497 41.0943 10.2912 41.2664 10.6546C41.4344 11.0222 41.5205 11.4104 41.5205 11.8275C41.5205 12.2446 41.4385 12.6451 41.2664 13.0127C41.0984 13.3802 40.8689 13.7023 40.5779 13.9873C40.291 14.2516 39.9549 14.4705 39.5779 14.6357C39.3934 14.71 39.2008 14.7678 38.9959 14.8091V17.1796H42.1393ZM40.1721 11.8316C40.1721 11.5921 40.123 11.3608 40.0287 11.1378C39.9344 10.9189 39.8033 10.7207 39.6393 10.5473C39.4754 10.3903 39.2828 10.2623 39.0656 10.1591C38.8443 10.0599 38.6148 10.0104 38.3648 10.0104C38.1148 10.0104 37.8852 10.0599 37.6639 10.1591C37.4467 10.2582 37.25 10.3862 37.0779 10.5473C36.9221 10.7207 36.791 10.9189 36.6926 11.1378C36.5943 11.3567 36.5451 11.5879 36.5451 11.8316C36.5451 12.0752 36.5943 12.3148 36.6926 12.5378C36.791 12.7566 36.918 12.9549 37.0779 13.1283C37.25 13.2852 37.4467 13.4133 37.6639 13.5165C37.8811 13.6156 38.1148 13.6652 38.3648 13.6652C38.6148 13.6652 38.8443 13.6156 39.0656 13.5165C39.2869 13.4174 39.4754 13.2894 39.6393 13.1283C39.8033 12.9549 39.9344 12.7566 40.0287 12.5378C40.123 12.3189 40.1721 12.0835 40.1721 11.8316ZM42.9713 8.37916H44.332V19.5005H42.9713V8.37503V8.37916Z" fill="#575756"/>
<path d="M49.6598 17.4686V14.0162H50.959V17.4686H52.8033V14.0162H54.1147V17.4686H57.3934V18.6786H47.2459V17.4686H49.6598ZM55.2049 15.5112V10.1756H48.0656V8.9408H56.5779V15.5112H55.2049Z" fill="#575756"/>
<path d="M59.8524 15.4038H70V16.6262H65.6065V19.4922H64.2336V16.6262H59.8524V15.4038ZM62.0164 9.96908H67.8197V8.56085H69.1803V13.9129H60.6639V8.56085H62.0123V9.96908H62.0164ZM67.8197 11.1667H62.0164V12.6988H67.8197V11.1667Z" fill="#575756"/>
</g>
<defs>
<clipPath id="clip0_1_11">
<rect width="70" height="27" fill="white"/>
</clipPath>
</defs>
</svg>
